<?xml version="1.0" encoding="UTF-8" standalone="no"?><!DOCTYPE svg PUBLIC "-//W3C//DTD SVG 1.1//EN" "http://www.w3.org/Graphics/SVG/1.1/DTD/svg11.dtd"><svg width="100%" height="100%" viewBox="0 0 131 131" version="1.1" xmlns="http://www.w3.org/2000/svg" xmlns:xlink="http://www.w3.org/1999/xlink" xml:space="preserve" xmlns:serif="http://www.serif.com/" style="fill-rule:evenodd;clip-rule:evenodd;stroke-linejoin:round;stroke-miterlimit:2;"><path d="M8.4,0l113.7,0c4.6,0 8.4,4.1 8.4,9.1l0,112.3c0,5 -3.7,9.1 -8.4,9.1l-113.7,0c-4.6,0 -8.4,-4.1 -8.4,-9.1l0,-112.3c0,-5 3.8,-9.1 8.4,-9.1Z" style="fill:#e60f05;fill-rule:nonzero;"/><g><path d="M92.1,83.4c-1.1,-1.1 -2.4,-1.8 -3.9,-2.1c-1.5,-0.3 -3,-0.1 -4.4,0.4c-1.4,0.6 -2.6,1.5 -3.4,2.8c-0.8,1.2 -1.3,2.7 -1.3,4.2c0,1 0.2,2 0.6,2.9c0.4,0.9 0.9,1.8 1.6,2.5c0.7,0.7 1.5,1.3 2.5,1.6c0.9,0.4 1.9,0.6 2.9,0.6c1.5,0 3,-0.4 4.2,-1.3c1.2,-0.8 2.2,-2 2.8,-3.4c0.6,-1.4 0.7,-2.9 0.4,-4.4c-0.2,-1.4 -0.9,-2.7 -2,-3.8Zm-5.3,9.1c-2,0 -3.7,-1.7 -3.7,-3.7c0,-2 1.7,-3.7 3.7,-3.7c2,0 3.8,1.7 3.8,3.7c0,2 -1.8,3.7 -3.8,3.7Z" style="fill:#fff;fill-rule:nonzero;"/><path d="M105.5,79l-2.2,0c-2,0 -3,-0.9 -3.9,-1.9c-1.6,-1.8 -3.5,-3.2 -5.7,-4.2c-2.2,-1 -4.5,-1.4 -6.9,-1.4l-61.2,0c-0.2,0 -0.4,0.1 -0.6,0.2c-0.2,0.1 -0.3,0.2 -0.5,0.3c-0.1,0.1 -0.2,0.3 -0.3,0.5c-0.1,0.2 -0.2,0.4 -0.2,0.6l0,10.1c0,1.1 -0.9,0.7 -0.9,2.5l0,1c0,1.2 0.7,1.9 1.8,1.9l2,0c0.3,0 1,-0.2 1,-1c0,-6.2 5.1,-11.3 11.1,-11.3c6,0 11.3,4.8 11.3,11.3c0,0.6 0.4,0.9 0.9,0.9l23.3,0c0.6,0 1,-0.4 1,-1c0,-5.9 4.7,-11.3 11.3,-11.3c6.2,0 11.2,5.1 11.2,11.3c0,0.4 0.2,1 1,1l6.6,0c1,0 1.9,-1 1.9,-1.9l0,-5.6c-0.2,-1.3 -0.8,-2 -2,-2Z" style="fill:#fff;fill-rule:nonzero;"/><path d="M44.4,83.4c-1.1,-1.1 -2.4,-1.8 -3.9,-2.1c-1.5,-0.3 -3,-0.1 -4.4,0.4c-1.4,0.6 -2.6,1.5 -3.4,2.8c-0.8,1.2 -1.3,2.7 -1.3,4.2c0,1 0.2,2 0.6,2.9c0.4,0.9 0.9,1.8 1.6,2.5c0.7,0.7 1.5,1.3 2.5,1.6c0.9,0.4 1.9,0.6 2.9,0.6c1.5,0 3,-0.4 4.2,-1.3c1.2,-0.8 2.2,-2 2.8,-3.4c0.6,-1.4 0.7,-2.9 0.4,-4.4c-0.2,-1.4 -0.9,-2.7 -2,-3.8Zm-5.3,9.1c-2,0 -3.7,-1.7 -3.7,-3.7c0,-2 1.7,-3.7 3.7,-3.7c2,0 3.8,1.7 3.8,3.7c0,2 -1.8,3.7 -3.8,3.7Z" style="fill:#fff;fill-rule:nonzero;"/><path d="M24.4,65.8c0.1,0.2 0.3,0.3 0.5,0.4c0.2,0.1 0.4,0.1 0.6,0.1l61.2,0c5.3,-0.1 10.5,2 14.3,5.6c0.6,0.6 1.4,1.9 2.6,1.9l1.2,0c0.6,0 0.8,-0.3 0.8,-1l0,-8.7c0,-12.2 -7.4,-22 -20,-26.8c-13.1,-5.2 -44.3,-3.2 -56.9,0.1c-2,0.5 -4.7,1.5 -4.7,5.3l0,20l0.1,1.9c-0.1,0.5 0.1,0.9 0.3,1.2Zm50.8,-21c0,-0.6 0.2,-1 1,-1l3.9,0c9.4,0 15.8,6.4 19.3,15.9c0.2,0.5 0.1,1.3 -0.9,1.3l-22.3,0c-0.6,0 -1,-0.6 -1,-1l0,-15.2Zm-22.8,0c-0,-0.1 -0,-0.3 0.1,-0.4c-0,-0.1 0.1,-0.2 0.2,-0.3c0.1,-0.1 0.2,-0.2 0.3,-0.2c0.1,0 0.2,-0.1 0.4,-0.1l16.5,0c0.6,0 1,0.4 1,1l0,15.1c0,0.5 -0.4,1 -1,1l-16.6,0c-0.5,0 -1,-0.2 -1,-1l-0,-15.1l0.1,0Zm-23.1,0c-0,-0.2 -0,-1 0.9,-1l16.9,0c0.6,0 1,0.4 1,0.9l-0,15.3c-0,0.3 -0.2,0.9 -1,0.9l-16.9,0c-0.7,0 -0.9,-0.6 -0.9,-1l-0,-15.1Z" style="fill:#fff;fill-rule:nonzero;"/></g></svg>